<svg width="77.000000" height="36.620117" viewBox="0 0 77 36.6201" fill="none" xmlns="http://www.w3.org/2000/svg" xmlns:xlink="http://www.w3.org/1999/xlink">
	<desc>
			Created with Pixso.
	</desc>
	<defs/>
	<path id="Polygon 1" d="M19.46 7.95L13.44 18.38L25.48 18.38L19.46 7.95Z" fill="#08546C" fill-opacity="1.000000" fill-rule="evenodd"/>
	<path id="Polygon 5" d="M9.73 20.46L3.71 30.89L15.75 30.89L9.73 20.46Z" fill="#08546C" fill-opacity="1.000000" fill-rule="evenodd"/>
	<path id="Polygon 3" d="M34.99 7.05L22.95 6.94L28.88 17.42L34.99 7.05Z" fill="#08546C" fill-opacity="1.000000" fill-rule="evenodd"/>
	<path id="Polygon 4" d="M34.99 30.55L28.85 20.2L22.95 30.7L34.99 30.55Z" fill="#08546C" fill-opacity="1.000000" fill-rule="evenodd"/>
	<path id="Polygon 2" d="M13.24 19.51L19.2 29.97L25.28 19.57L13.24 19.51Z" fill="#08546C" fill-opacity="1.000000" fill-rule="evenodd"/>
	<path id="Polygon 6" d="M3.5 7L9.47 17.46L15.54 7.06L3.5 7Z" fill="#08546C" fill-opacity="1.000000" fill-rule="evenodd"/>
	<path id="P." d="M55.51 29L50.89 29L50.89 7.18L59.5 7.18C64.46 7.18 67.32 10.24 67.32 14.57C67.32 18.92 64.4 21.92 59.38 21.92L55.51 21.92L55.51 29ZM55.51 10.95L55.51 18.22L58.63 18.22C61.28 18.22 62.57 16.73 62.57 14.57C62.57 12.4 61.28 10.95 58.61 10.95L55.51 10.95ZM74.43 26.72C74.41 28.13 73.23 29.27 71.86 29.27C70.46 29.27 69.3 28.13 69.31 26.72C69.3 25.32 70.46 24.18 71.86 24.18C73.23 24.18 74.41 25.32 74.43 26.72Z" fill="#08546C" fill-opacity="1.000000" fill-rule="evenodd"/>
</svg>
