<svg width="28.000000" height="23.446899" viewBox="0 0 28 23.4469" fill="none" xmlns="http://www.w3.org/2000/svg" xmlns:xlink="http://www.w3.org/1999/xlink">
	<desc>
			Created with Pixso.
	</desc>
	<defs/>
	<path id="Vector" d="M14 7.63C11.92 7.63 10.25 6.26 10.25 4.56C10.25 2.87 11.92 1.5 14 1.5C16.07 1.5 17.75 2.87 17.75 4.56C17.75 6.26 16.07 7.63 14 7.63Z" stroke="#08546C" stroke-opacity="1.000000" stroke-width="3.000000" stroke-linejoin="round"/>
	<path id="Vector" d="M14 21.94L14 7.63" stroke="#08546C" stroke-opacity="1.000000" stroke-width="3.000000" stroke-linejoin="round" stroke-linecap="round"/>
	<path id="Vector" d="M5.25 11.72L1.5 11.72C1.5 14.43 2.81 17.03 5.16 18.95C7.5 20.86 10.68 21.94 14 21.94C17.31 21.94 20.49 20.86 22.83 18.95C25.18 17.03 26.5 14.43 26.5 11.72L22.75 11.72" stroke="#08546C" stroke-opacity="1.000000" stroke-width="3.000000" stroke-linejoin="round" stroke-linecap="round"/>
</svg>
