<svg width="50.224609" height="30.446777" viewBox="0 0 50.2246 30.4468" fill="none" xmlns="http://www.w3.org/2000/svg" xmlns:xlink="http://www.w3.org/1999/xlink">
	<desc>
			Created with Pixso.
	</desc>
	<defs/>
	<path id="Vector" d="M49.19 16.94L37.99 16.47C38.63 9.43 41 8.73 43.92 8.62L45.05 8.55L45.55 0.8L44.25 0.81C40.45 0.83 36.21 1.24 33.22 4.11C30.59 6.62 29.24 10.85 28.81 17.41L28.03 29.57L48.32 30.43L49.19 16.94Z" fill="#A7C1CA" fill-opacity="1.000000" fill-rule="nonzero"/>
	<path id="Vector" d="M20.29 30.3L21.16 16.81L10.11 16.34C10.75 9.3 13.04 8.6 15.97 8.49L17.02 8.42L17.52 0.67L16.3 0.68C12.49 0.7 8.22 1.11 5.22 3.98C2.6 6.49 1.21 10.72 0.78 17.28L0 29.44L20.29 30.3Z" fill="#A7C1CA" fill-opacity="1.000000" fill-rule="nonzero"/>
</svg>
